<svg xmlns="http://www.w3.org/2000/svg" width="65" height="85" id="gameboy"><g fill="none" fill-rule="evenodd" transform="translate(.755 .259)"><path stroke="#3D42EC" stroke-linecap="square" stroke-width="4.22" d="M12.186 54.338h10.446M17.41 49.114V59.56"></path><path stroke="#3D42EC" stroke-width="3.165" d="M5.275 1.583a3.693 3.693 0 0 0-3.692 3.692v73.857a3.693 3.693 0 0 0 3.692 3.693H47.48c7.867 0 14.244-6.377 14.244-14.244V5.275a3.693 3.693 0 0 0-3.693-3.692H5.275Z"></path><circle cx="49.59" cy="50.645" r="3.165" fill="#3D42EC"></circle><circle cx="43.259" cy="58.03" r="3.165" fill="#3D42EC"></circle><rect width="46.424" height="34.818" x="8.441" y="7.386" fill="#6FABF6" fill-rule="nonzero" rx="5.275"></rect><path stroke="#3D42EC" stroke-linecap="round" stroke-linejoin="round" stroke-width="3.165" d="m25.578 75.967 4.745-3.693m2.64 3.693 4.746-3.693"></path></g></svg>